<svg width="24"
    height="24" viewBox="0 0 24 24" fill="none" xmlns="http://www.w3.org/2000/svg">
    <path
        d="M17.7507 9.66663H11.3757C10.5932 9.66663 9.95898 10.2636 9.95898 11V17C9.95898 17.7363 10.5932 18.3333 11.3757 18.3333H17.7507C18.5331 18.3333 19.1673 17.7363 19.1673 17V11C19.1673 10.2636 18.5331 9.66663 17.7507 9.66663Z"
        stroke="#808086" stroke-linecap="round" stroke-linejoin="round"></path>
    <path fill-rule="evenodd" clip-rule="evenodd"
        d="M6.41667 5.5C6.1641 5.5 5.92752 5.59471 5.75761 5.75462C5.58874 5.91357 5.5 6.12244 5.5 6.33333V12.3333C5.5 12.5442 5.58874 12.7531 5.75761 12.912C5.92752 13.072 6.1641 13.1667 6.41667 13.1667H7.125C7.40114 13.1667 7.625 13.3905 7.625 13.6667C7.625 13.9428 7.40114 14.1667 7.125 14.1667H6.41667C5.91779 14.1667 5.4337 13.9804 5.07225 13.6402C4.70978 13.2991 4.5 12.8297 4.5 12.3333V6.33333C4.5 5.83699 4.70978 5.36758 5.07225 5.02642C5.4337 4.68624 5.91779 4.5 6.41667 4.5H12.7917C13.2905 4.5 13.7746 4.68624 14.1361 5.02642C14.4986 5.36758 14.7083 5.83698 14.7083 6.33333V7C14.7083 7.27614 14.4845 7.5 14.2083 7.5C13.9322 7.5 13.7083 7.27614 13.7083 7V6.33333C13.7083 6.12244 13.6196 5.91357 13.4507 5.75462C13.2808 5.59471 13.0442 5.5 12.7917 5.5H6.41667Z"
        fill="#808086"></path>
</svg>
