<svg width="24" height="24" viewBox="0 0 24 24"
    fill="none" xmlns="http://www.w3.org/2000/svg">
    <path
        d="M11 17V14H13V17C13 17.5523 12.5523 18 12 18C11.4477 18 11 17.5523 11 17Z"
        fill="#BFBFC3"></path>
    <path fill-rule="evenodd" clip-rule="evenodd"
        d="M12 2C9.23858 2 7 4.23858 7 7V9H5C3.89543 9 3 9.89543 3 11V19C3 21.2091 4.79086 23 7 23H17C19.2091 23 21 21.2091 21 19V11C21 9.89543 20.1046 9 19 9H9V7C9 5.34315 10.3431 4 12 4C13.0412 4 13.9585 4.53038 14.4965 5.3357L16.1607 4.22618C15.2641 2.88396 13.7353 2 12 2ZM5 19V11H19V19C19 20.1046 18.1046 21 17 21H7C5.89543 21 5 20.1046 5 19Z"
        fill="#BFBFC3"></path>
</svg>